<svg xmlns="http://www.w3.org/2000/svg" width="32" height="32" fill="none" viewBox="0 0 32 32">
    <rect width="31" height="31" x=".5" y=".5" stroke="#00A8A7" rx="1.5"/>
    <path fill="#00A8A7" d="M11.442 12.881c.797 0 1.442-.646 1.442-1.442 0-.797-.645-1.442-1.442-1.442-.796 0-1.442.645-1.442 1.442 0 .796.646 1.442 1.442 1.442zM14.246 13.974v8.002h2.485v-3.957c0-1.044.196-2.055 1.49-2.055 1.277 0 1.293 1.193 1.293 2.12v3.892H22v-4.388c0-2.155-.464-3.812-2.983-3.812-1.21 0-2.02.664-2.352 1.292h-.034v-1.094h-2.385zm-4.048 0h2.488v8.002h-2.488v-8.002z"/>
</svg>
