<svg xmlns="http://www.w3.org/2000/svg" width="12" height="10" fill="none" viewBox="0 0 12 10">
    <path fill="#9E9E9E" d="M1.875 7.5h-1.5c-.1 0-.195.04-.265.11S0 7.776 0 7.875v1.5c0 .1.04.195.11.265s.166.11.265.11h1.5c.1 0 .195-.04.265-.11s.11-.166.11-.265v-1.5c0-.1-.04-.195-.11-.265s-.166-.11-.265-.11zm0-7.5h-1.5C.275 0 .18.04.11.11S0 .276 0 .375v1.5c0 .1.04.195.11.265s.166.11.265.11h1.5c.1 0 .195-.04.265-.11s.11-.166.11-.265v-1.5c0-.1-.04-.195-.11-.265S1.974 0 1.875 0zm0 3.75h-1.5c-.1 0-.195.04-.265.11S0 4.026 0 4.125v1.5c0 .1.04.195.11.265S.276 6 .375 6h1.5c.1 0 .195-.04.265-.11s.11-.166.11-.265v-1.5c0-.1-.04-.195-.11-.265s-.166-.11-.265-.11zm9.75 4.125h-7.5c-.1 0-.195.04-.265.11s-.11.166-.11.265V9c0 .1.04.195.11.265s.166.11.265.11h7.5c.1 0 .195-.04.265-.11S12 9.1 12 9v-.75c0-.1-.04-.195-.11-.265s-.165-.11-.265-.11zm0-7.5h-7.5c-.1 0-.195.04-.265.11S3.75.65 3.75.75v.75c0 .1.04.195.11.265s.166.11.265.11h7.5c.1 0 .195-.04.265-.11S12 1.6 12 1.5V.75c0-.1-.04-.195-.11-.265s-.165-.11-.265-.11zm0 3.75h-7.5c-.1 0-.195.04-.265.11s-.11.166-.11.265v.75c0 .1.04.195.11.265s.166.11.265.11h7.5c.1 0 .195-.04.265-.11S12 5.35 12 5.25V4.5c0-.1-.04-.195-.11-.265s-.165-.11-.265-.11z"/>
</svg>
