<svg xmlns="http://www.w3.org/2000/svg" width="27" height="29" fill="none" viewBox="0 0 27 29">
    <path fill="#282828" d="M6.27 13.013h2.892v2.891H6.271v-2.891zm0 5.783h2.892v2.892H6.271v-2.892zm5.784-5.783h2.892v2.891h-2.892v-2.891zm0 5.783h2.892v2.892h-2.892v-2.892zm5.784-5.783h2.891v2.891h-2.891v-2.891zm0 5.783h2.891v2.892h-2.891v-2.892z"/>
    <path fill="#282828" d="M3.379 28.917h20.242c1.595 0 2.892-1.297 2.892-2.891V5.783c0-1.594-1.297-2.891-2.892-2.891H20.73V0h-2.891v2.892H9.162V0H6.271v2.892H3.379C1.784 2.892.487 4.189.487 5.783v20.243c0 1.594 1.297 2.891 2.892 2.891zM23.621 8.675l.002 17.35H3.379V8.676h20.242z"/>
</svg>
