<svg xmlns="http://www.w3.org/2000/svg" width="32" height="32" fill="none" viewBox="0 0 32 32">
    <rect width="31" height="31" x=".5" y=".5" stroke="#00A8A7" rx="1.5"/>
    <path fill="#00A8A7" d="M15.998 12.408c-1.987 0-3.592 1.604-3.592 3.592 0 1.987 1.604 3.591 3.592 3.591 1.987 0 3.592-1.604 3.592-3.591 0-1.988-1.605-3.592-3.592-3.592zm0 5.926c-1.285 0-2.334-1.049-2.334-2.334 0-1.286 1.049-2.335 2.334-2.335 1.285 0 2.334 1.05 2.334 2.335s-1.049 2.334-2.334 2.334zm3.739-6.91c-.464 0-.84.375-.84.839 0 .464.376.839.84.839.464 0 .838-.373.838-.84 0-.11-.021-.219-.063-.32-.042-.102-.104-.195-.182-.273-.078-.078-.17-.14-.272-.181-.102-.043-.211-.064-.321-.064zM22.999 16c0-.967.009-1.925-.046-2.89-.054-1.12-.31-2.115-1.13-2.934-.82-.822-1.813-1.076-2.934-1.13-.967-.054-1.924-.045-2.89-.045-.966 0-1.924-.01-2.889.045-1.12.054-2.115.31-2.934 1.13-.822.82-1.076 1.814-1.13 2.934-.054.967-.045 1.925-.045 2.89 0 .965-.01 1.924.045 2.89.054 1.12.31 2.114 1.13 2.934.82.821 1.814 1.075 2.934 1.13.967.054 1.925.045 2.89.045.966 0 1.924.009 2.89-.046 1.12-.054 2.114-.31 2.934-1.13.821-.82 1.075-1.813 1.13-2.934.055-.965.045-1.923.045-2.89zm-1.541 4.129c-.128.319-.282.557-.529.802-.247.247-.483.4-.802.529-.921.366-3.108.283-4.129.283-1.02 0-3.21.083-4.13-.282-.32-.127-.558-.281-.803-.528-.247-.247-.4-.484-.529-.802-.364-.923-.282-3.11-.282-4.131 0-1.021-.082-3.21.282-4.131.128-.319.282-.557.53-.802.246-.245.482-.401.801-.529.921-.364 3.11-.282 4.131-.282 1.02 0 3.21-.082 4.13.282.32.128.558.282.803.529.247.247.4.483.529.802.364.92.282 3.11.282 4.13 0 1.022.082 3.209-.284 4.13z"/>
</svg>
