<svg xmlns="http://www.w3.org/2000/svg" width="12" height="7" fill="none" viewBox="0 0 12 7">
    <path fill="#282828" d="M5.833 0C2.573 0 0 3.5 0 3.5S2.573 7 5.833 7c2.494 0 5.834-3.5 5.834-3.5S8.327 0 5.833 0zm0 5.68c-1.145 0-2.077-.978-2.077-2.18 0-1.203.932-2.181 2.077-2.181s2.077.978 2.077 2.18c0 1.203-.932 2.182-2.077 2.182zm0-3.453c-.16-.003-.32.027-.47.09-.15.062-.287.155-.402.274-.115.118-.206.26-.269.416-.062.156-.094.323-.094.493 0 .169.032.336.094.492.063.156.154.298.27.416.114.119.25.212.4.274.15.063.31.094.471.09.318-.006.62-.143.843-.38.222-.239.347-.559.347-.892 0-.334-.125-.654-.347-.892-.223-.238-.525-.375-.843-.381z"/>
</svg>
