<svg xmlns="http://www.w3.org/2000/svg" width="30" height="30" fill="none" viewBox="0 0 30 30">
    <path fill="#282828" d="M27.228 13.758V8.165c0-.722-.287-1.414-.797-1.924s-1.203-.798-1.925-.798H19.06V2.722c0-.722-.287-1.414-.798-1.925C17.752.287 17.06 0 16.337 0h-5.446c-.722 0-1.414.287-1.925.797-.51.51-.797 1.203-.797 1.925v2.721H2.723c-.722 0-1.415.287-1.925.798C.287 6.75 0 7.442 0 8.165v14.97c0 .721.287 1.413.798 1.924.51.51 1.203.797 1.925.797h9.884c.748 1.092 1.716 2.017 2.842 2.714 1.126.698 2.384 1.153 3.696 1.337 1.312.185 2.647.093 3.922-.267 1.274-.361 2.46-.983 3.48-1.828 1.02-.844 1.853-1.892 2.446-3.076.593-1.184.932-2.478.996-3.8.064-1.323-.148-2.644-.624-3.88-.475-1.236-1.203-2.359-2.137-3.298zM10.891 2.722h5.446v2.721h-5.446V2.722zm13.615 23.134c-1.179.883-2.612 1.36-4.085 1.36-1.473 0-2.906-.477-4.084-1.36-1.143-.857-1.987-2.052-2.413-3.415-.426-1.363-.412-2.825.04-4.18.451-1.355 1.318-2.533 2.477-3.368 1.16-.835 2.552-1.285 3.98-1.285 1.429 0 2.822.45 3.98 1.285 1.16.835 2.026 2.013 2.478 3.368.452 1.355.466 2.817.04 4.18-.426 1.363-1.27 2.558-2.413 3.415zM19.06 16.33h2.042v3.838l3.322 1.918-1.021 1.77-4.343-2.505V16.33z"/>
</svg>
