<svg xmlns="http://www.w3.org/2000/svg" width="12" height="12" fill="none" viewBox="0 0 12 12">
    <path fill="#656565" d="M6.848 6l1.698 1.697c.112.112.176.265.176.424 0 .16-.064.312-.176.425-.113.112-.265.176-.425.176-.159 0-.312-.064-.424-.176L6 6.848 4.303 8.546c-.112.112-.265.176-.424.176-.16 0-.312-.064-.425-.176-.112-.113-.176-.265-.176-.425 0-.079.016-.157.046-.23.03-.072.074-.138.13-.194L5.152 6 3.454 4.303c-.112-.112-.176-.265-.176-.424 0-.08.016-.157.046-.23.03-.073.074-.14.13-.195.056-.056.122-.1.195-.13.073-.03.15-.046.23-.046.159 0 .312.064.424.176L6 5.152l1.697-1.698c.112-.112.265-.176.424-.176.16 0 .312.064.425.176.112.113.176.265.176.425 0 .159-.064.312-.176.424L6.848 6zM6 12c-3.314 0-6-2.686-6-6s2.686-6 6-6 6 2.686 6 6-2.686 6-6 6zm0-1.2c1.273 0 2.494-.506 3.394-1.406.9-.9 1.406-2.121 1.406-3.394 0-1.273-.506-2.494-1.406-3.394C8.494 1.706 7.273 1.2 6 1.2c-1.273 0-2.494.506-3.394 1.406C1.706 3.506 1.2 4.727 1.2 6c0 1.273.506 2.494 1.406 3.394.9.9 2.121 1.406 3.394 1.406z"/>
</svg>
