<svg xmlns="http://www.w3.org/2000/svg" width="15" height="15" fill="none" viewBox="0 0 15 15">
    <path fill="#282828" d="M14.519 12.767l-3.544-3.023c-.367-.33-.76-.482-1.076-.468.944-1.103 1.423-2.529 1.339-3.977-.084-1.45-.726-2.81-1.791-3.795C8.382.517 6.977-.018 5.526.008c-1.451.027-2.835.615-3.863 1.64C.635 2.672.044 4.055.013 5.506c-.03 1.451.502 2.858 1.485 3.925.984 1.068 2.342 1.713 3.79 1.801 1.45.088 2.876-.388 3.981-1.328-.015.316.136.709.466 1.076l3.013 3.553c.516.574 1.36.624 1.875.11.516-.514.468-1.359-.105-1.876zM5.625 9.369c-.993-.001-1.945-.397-2.646-1.1-.702-.703-1.095-1.656-1.094-2.65.002-.993.397-1.945 1.1-2.646.704-.702 1.657-1.095 2.65-1.094.993.002 1.945.397 2.647 1.1.701.704 1.095 1.657 1.093 2.65-.001.993-.397 1.946-1.1 2.647-.703.701-1.657 1.095-2.65 1.093z"/>
</svg>
