<svg xmlns="http://www.w3.org/2000/svg" width="8" height="12" fill="none" viewBox="0 0 8 12">
    <path fill="#282828" d="M7.799 2.974c-.017-.052-.046-.135-.088-.248-.042-.113-.072-.187-.088-.222-.353-.852-.868-1.482-1.548-1.891C5.396.204 4.688 0 3.95 0c-.956 0-1.82.326-2.592.978C.587 1.63.134 2.548 0 3.73v.496l.025.13v.183c.034.278.122.596.264.952.143.357.273.644.39.861.118.218.306.548.566.991.26.444.432.735.516.874C2.247 9.07 2.994 10.33 4 12c.134-.226.595-1.043 1.384-2.452.033-.052.096-.157.188-.313.093-.157.155-.278.189-.365.034-.053.088-.127.164-.222.075-.096.13-.17.163-.222.117-.226.373-.656.767-1.291.394-.635.684-1.17.868-1.605.185-.434.277-.86.277-1.278v-.574c0-.191-.067-.426-.201-.704zM3.975 5.557c-.654 0-1.107-.33-1.359-.992-.016-.087-.025-.217-.025-.391v-.34c0-.434.143-.769.428-1.004.285-.234.62-.352 1.006-.352.42 0 .767.148 1.044.444.277.295.415.66.415 1.095 0 .435-.146.8-.44 1.096-.293.296-.65.444-1.07.444z"/>
</svg>
