<svg xmlns="http://www.w3.org/2000/svg" width="20" height="30" fill="none" viewBox="0 0 20 30">
    <path fill="#282828" d="M19.497 7.435c-.042-.13-.115-.337-.22-.62-.105-.282-.178-.467-.22-.554-.88-2.13-2.17-3.707-3.868-4.728C13.49.51 11.719 0 9.874 0c-2.39 0-4.55.815-6.478 2.446C1.468 4.076.336 6.37 0 9.326v1.24l.063.325v.457c.084.695.304 1.489.66 2.38.357.892.682 1.609.975 2.152.294.544.765 1.37 1.415 2.479.65 1.108 1.08 1.837 1.29 2.184C5.618 22.674 7.484 25.827 10 30c.335-.565 1.489-2.609 3.46-6.13.083-.13.24-.392.47-.783.231-.391.389-.696.473-.913.083-.13.22-.315.408-.554.189-.24.325-.424.41-.555.293-.565.932-1.641 1.917-3.228.986-1.587 1.709-2.924 2.17-4.01.461-1.088.692-2.153.692-3.197V9.196c0-.479-.168-1.066-.503-1.761zm-9.56 6.456c-1.635 0-2.767-.826-3.396-2.478-.042-.217-.063-.543-.063-.978v-.848c0-1.087.356-1.924 1.07-2.51.712-.588 1.55-.881 2.515-.881 1.048 0 1.918.37 2.61 1.108.692.74 1.038 1.653 1.038 2.74 0 1.086-.367 2-1.1 2.739-.735.739-1.626 1.108-2.674 1.108z"/>
</svg>
