<svg xmlns="http://www.w3.org/2000/svg" width="112" height="42" fill="none" viewBox="0 0 112 42">
    <path fill="#fff" d="M12.437 16.681l-1.625 11.563H8.35l.682-4.716H3.127l-.664 4.716H0l1.624-11.563h2.463l-.646 4.577h5.887l.646-4.577h2.463zm5.275 3.738c1.118 0 2.044.332 2.76.996.716.681 1.065 1.554 1.065 2.62 0 1.223-.42 2.253-1.258 3.092-.838.838-1.869 1.257-3.109 1.257-1.1 0-2.008-.367-2.76-1.083-.75-.698-1.135-1.572-1.135-2.62 0-1.17.437-2.166 1.31-3.004.873-.839 1.921-1.258 3.127-1.258zm-.524 6.114c.576 0 1.048-.262 1.432-.804.367-.541.559-1.118.559-1.764 0-.507-.14-.908-.42-1.223-.279-.314-.663-.471-1.117-.471-.611 0-1.1.28-1.45.82-.35.56-.524 1.118-.524 1.712 0 .524.157.944.472 1.24.28.332.646.49 1.048.49zm9.747-7.616l-.315 1.624h1.694L28 22.236h-1.694l-.454 2.498c-.035.21-.053.419-.053.593 0 .682.227 1.013.681 1.013.28 0 .716-.157 1.328-.471v2.026c-.681.332-1.328.49-1.974.49-.751 0-1.328-.245-1.764-.717-.437-.472-.646-1.083-.646-1.834 0-.227.017-.454.07-.681l.54-2.935H22.48l.28-1.694h1.554l.28-1.625h2.34v.018zm9.432 5.8h-5.03c-.053.61.087 1.082.419 1.449.331.367.785.541 1.344.541.63 0 1.572-.262 2.848-.786l-.402 1.922c-.996.366-1.887.559-2.673.559-1.17 0-2.096-.332-2.794-1.013-.7-.682-1.048-1.59-1.048-2.725 0-1.17.401-2.184 1.222-3.005.804-.82 1.8-1.24 2.952-1.24.996 0 1.8.297 2.393.891.594.594.909 1.38.909 2.34-.018.35-.07.7-.14 1.066zm-4.821-1.328h2.69c.017-.088.017-.193.017-.28 0-.332-.105-.611-.314-.82-.21-.21-.472-.315-.821-.315-.716.017-1.24.489-1.572 1.415zm9.991-6.708l-1.624 11.563h-2.288l1.624-11.563h2.288zm8.769 3.983l-1.066 7.58h-2.288l.105-.716c-.716.577-1.468.856-2.219.856-.786 0-1.414-.314-1.938-.926-.507-.61-.769-1.414-.769-2.375 0-1.38.49-2.498 1.45-3.371.96-.874 2.34-1.31 4.14-1.31.89.017 1.764.104 2.585.262zm-3.022 5.345l.506-3.669c-.174-.017-.331-.017-.489-.017-.925 0-1.607.28-2.078.838-.472.56-.699 1.24-.699 2.062 0 .471.105.82.297 1.083.192.262.472.384.82.384.542 0 1.084-.227 1.643-.681zm7.319-5.468l-.175 1.1.035.036c.681-.839 1.31-1.258 1.869-1.258.437 0 .89.28 1.362.839L56.63 23.37c-.367-.559-.734-.82-1.083-.82-.297 0-.611.156-.908.47-.315.315-.472.525-.472.647l-.646 4.576H51.23l1.083-7.703h2.289zm4.227-2.13c0-.333.122-.612.349-.839.227-.227.507-.35.838-.35.332 0 .612.123.839.35.227.227.35.506.35.838 0 .332-.123.612-.35.839-.227.227-.507.35-.839.35-.331 0-.61-.123-.838-.35-.245-.227-.35-.507-.35-.839zm2.06 2.13l-1.082 7.703H57.52l1.083-7.703h2.288zm9.38.123l-1.065 7.58h-2.288l.105-.716c-.716.577-1.467.856-2.219.856-.768 0-1.414-.314-1.938-.926-.507-.61-.769-1.414-.769-2.375 0-1.38.49-2.498 1.45-3.371.96-.874 2.34-1.31 4.14-1.31.89.017 1.746.104 2.585.262zm-3.039 5.345l.507-3.669c-.175-.017-.332-.017-.49-.017-.925 0-1.606.28-2.078.838-.471.56-.698 1.24-.698 2.062 0 .471.104.82.297 1.083.192.262.471.384.82.384.56 0 1.101-.227 1.642-.681zm5.94-9.328h3.667c1.258 0 2.219.262 2.865.751.646.507.978 1.188.978 2.044 0 1.153-.559 2.009-1.677 2.585.682.21 1.206.559 1.59 1.083.384.524.576 1.1.576 1.747 0 .89-.349 1.66-1.065 2.34-.716.682-1.677 1.013-2.9 1.013h-5.66l1.625-11.563zm2.2 1.939l-.384 2.533h1.66c.523 0 .925-.122 1.222-.367.28-.245.42-.577.42-.996 0-.786-.542-1.17-1.625-1.17H75.37zm-.646 4.472l-.49 3.231h2.341c.664 0 1.17-.157 1.52-.454.35-.297.524-.716.524-1.24 0-.49-.192-.856-.576-1.136-.385-.262-.909-.401-1.572-.401h-1.747zm10.603-2.55l-.175 1.1.035.035c.681-.839 1.31-1.258 1.869-1.258.436 0 .89.28 1.362.839l-1.065 2.113c-.367-.559-.734-.82-1.083-.82-.297 0-.612.156-.909.47-.296.315-.471.525-.471.647l-.647 4.576h-2.288l1.083-7.703h2.288zm10.916.122l-1.065 7.58h-2.288l.105-.716c-.716.577-1.468.856-2.219.856-.768 0-1.415-.314-1.939-.926-.506-.61-.768-1.414-.768-2.375 0-1.38.489-2.498 1.45-3.371.96-.874 2.34-1.31 4.14-1.31.89.017 1.764.104 2.585.262zm-3.039 5.345l.507-3.669c-.175-.017-.332-.017-.49-.017-.925 0-1.606.28-2.078.838-.472.56-.699 1.24-.699 2.062 0 .471.105.82.297 1.083.192.262.472.384.821.384.56 0 1.1-.227 1.642-.681zm9.66-4.891l-.175 1.816c-.402-.192-.804-.349-1.24-.471-.437-.123-.751-.175-.978-.175-.332 0-.507.105-.507.332 0 .227.314.559.908 1.013.699.524 1.153.96 1.345 1.293.21.349.297.698.297 1.048 0 .698-.262 1.275-.803 1.729-.542.454-1.223.681-2.079.681-.873 0-1.764-.227-2.655-.698l.315-1.712c.943.35 1.641.541 2.096.541.506 0 .751-.14.751-.419 0-.244-.332-.611-.996-1.118-.664-.507-1.1-.908-1.293-1.205-.192-.297-.296-.594-.296-.856 0-.734.28-1.328.803-1.8.542-.47 1.223-.698 2.079-.698.786 0 1.607.227 2.428.699zm2.061-2.708c0-.332.122-.61.349-.838.227-.227.507-.35.839-.35.331 0 .611.123.838.35.227.227.349.506.349.838 0 .332-.122.612-.349.839-.245.227-.507.35-.838.35-.332 0-.612-.123-.839-.35-.227-.227-.349-.507-.349-.839zm2.078 2.131l-1.083 7.703h-2.288l1.083-7.703h2.288zm4.996-3.86l-1.624 11.563h-2.289l1.625-11.563H112zM49.205 14.027c.908-.804 1.87-1.642 3.057-2.376 16.402-10.078 32.314 4.839 49.118 1.467 4.017-.803 8.297-3.755 9.834-7.685.209-.542.402-1.1.576-1.66-.174 1.1-.297 1.974-.786 3.162-1.554 3.773-4.768 6.393-8.436 7.983-1.887.82-3.948 1.222-5.992 1.414-7.44.7-14.707-2.445-21.59-4.803-7.702-2.638-15.912-3.336-23.178.89-1.537.926-1.048.63-2.603 1.608z"/>
    <path fill="#fff" d="M88.734 11.983c2.882-.297 5.816-.315 8.663-.873 4.472-.612 11.145-3.494 13.31-8.018.455-.96.612-1.991.542-3.04.314.84.332 1.573.227 2.446-.245 2.079-1.852 4.49-3.459 5.782-3.248 2.602-6.986 4.052-11.126 4.262-2.812.14-5.38-.192-8.157-.56zM52.402 12.716c.803-.384 1.572-.856 2.393-1.17 1.1-.402 2.218-.769 3.37-.978 1.468-.262 2.953-.454 4.438-.472 1.904 0 3.807.14 5.676.437 2.76.454 5.031 1.31 7.546 2.428-1.135-.332-2.253-.699-3.406-.978-1.048-.262-2.096-.49-3.161-.682-2.201-.384-4.454-.61-6.708-.576-2.008.035-4.192.227-6.13.769-.874.192-1.73.419-2.569.698l-1.45.524zM55.598 35.879c0 .471-.105.873-.332 1.257-.227.367-.541.664-.943.874-.402.21-.873.314-1.397.314h-1.118l-.437 3.18h-1.345l1.1-7.896h1.905c.331 0 .646.035.96.122.315.088.594.21.821.402.227.192.437.42.577.716.122.262.21.611.21 1.03zm-1.38.017c0-.244-.052-.454-.174-.646-.123-.192-.28-.332-.507-.437-.227-.105-.489-.14-.803-.14h-.437l-.35 2.568h.734c.315 0 .594-.052.821-.175.227-.122.402-.28.524-.471.14-.192.192-.437.192-.699zM60.594 38.498c0 .576-.122 1.1-.35 1.59-.226.488-.558.855-.977 1.135-.42.28-.874.401-1.363.401-.437 0-.838-.104-1.188-.297-.35-.21-.611-.489-.803-.855-.192-.367-.28-.787-.28-1.258 0-.56.123-1.083.367-1.555.245-.471.577-.856.996-1.118.419-.262.873-.401 1.362-.401.437 0 .821.105 1.153.297.332.192.611.471.786.838.21.35.297.769.297 1.223zm-1.275-.053c0-.384-.087-.698-.262-.943-.175-.244-.42-.367-.716-.367-.28 0-.507.105-.734.297-.21.192-.384.472-.507.821-.122.35-.192.699-.192 1.048 0 .245.035.472.123.664.087.192.21.35.349.454.157.105.314.157.49.157.261 0 .506-.087.733-.28.227-.191.384-.453.524-.785.122-.315.192-.681.192-1.066zM64.734 37.66c-.088-.088-.158-.158-.245-.21-.087-.053-.175-.07-.297-.07-.384 0-.751.367-1.118 1.083l-.437 3.022h-1.24l.734-5.223h1.258l-.158.943c.262-.349.507-.611.716-.786.21-.157.437-.244.664-.244.123 0 .262.017.385.07.122.052.227.122.331.227l-.593 1.188zM69.362 36.262l-.14.943h-1.1l-.384 2.253c-.052.262-.07.454-.07.611 0 .123.053.228.14.315.087.087.21.122.367.122.174 0 .314-.017.471-.087.158-.052.315-.122.49-.227l-.035 1.153c-.158.087-.35.157-.577.21-.227.052-.454.07-.699.07-.28 0-.524-.053-.75-.158-.21-.105-.385-.245-.507-.437-.123-.192-.175-.384-.175-.611 0-.227.052-.611.157-1.153l.367-2.061h-.978l.157-.943h1.013l.192-1.083h1.258l-.192 1.083h.995zM74.41 41.485h-1.257l.087-.542h-.017c-.472.437-.944.664-1.433.664-.332 0-.629-.087-.89-.28-.28-.192-.49-.454-.647-.785-.157-.332-.227-.7-.227-1.084 0-.663.157-1.257.454-1.764.297-.506.734-.89 1.275-1.153.542-.261 1.188-.384 1.922-.384.489 0 .978.053 1.467.175l-.734 5.153zm-.628-4.297c-.105-.018-.227-.018-.332-.018-.315 0-.594.053-.856.14-.262.087-.472.245-.664.42-.192.191-.332.436-.454.733s-.175.594-.175.908c0 .367.088.681.245.891.157.227.384.332.663.332.175 0 .367-.053.577-.175.21-.122.42-.28.594-.471l.402-2.76zM78.27 33.59l-1.1 7.895h-1.257l1.118-7.896h1.24zM86.2 33.59l-1.117 7.86c-.507.122-1.083.174-1.694.174-.542 0-1.031-.105-1.45-.297-.42-.192-.734-.471-.96-.82-.228-.367-.333-.77-.333-1.24 0-.63.14-1.189.437-1.66.297-.472.716-.839 1.24-1.083.542-.245 1.153-.367 1.852-.367h.401l.35-2.568H86.2zm-1.763 3.598h-.227c-.472 0-.874.087-1.206.244-.332.157-.594.402-.768.699-.175.297-.28.664-.28 1.065 0 .42.14.769.402 1.013.262.245.629.385 1.083.385.227 0 .42-.018.541-.053l.455-3.353zM91.563 38.498c0 .576-.122 1.1-.35 1.59-.226.488-.558.855-.977 1.135-.42.28-.874.401-1.38.401-.437 0-.839-.104-1.188-.297-.35-.21-.611-.489-.803-.855-.193-.367-.28-.787-.28-1.258 0-.56.122-1.083.367-1.555.244-.471.576-.856.996-1.118.419-.262.873-.401 1.362-.401.437 0 .82.105 1.153.297.332.192.611.471.786.838.227.35.314.769.314 1.223zm-1.275-.053c0-.384-.087-.698-.262-.943-.174-.244-.42-.367-.716-.367-.28 0-.507.105-.734.297-.21.192-.384.472-.506.821-.122.35-.192.699-.192 1.048 0 .245.035.472.122.664.087.192.21.35.35.454.157.105.314.157.488.157.262 0 .507-.087.734-.28.227-.191.402-.453.524-.785.122-.315.192-.681.192-1.066zM100.803 41.485h-1.45l-.838-1.747c-.244-.49-.419-.821-.524-.978-.105-.175-.21-.297-.314-.385-.105-.087-.21-.157-.332-.192-.122-.035-.28-.052-.49-.052h-.401l-.472 3.354h-1.344l1.1-7.896h2.009c.489 0 .908.053 1.257.175.35.122.612.28.821.49.21.209.367.436.454.698.088.262.14.541.14.82 0 .49-.157.91-.471 1.276-.315.367-.734.611-1.276.733v.053c.158.087.315.21.42.367.122.157.21.332.314.524l1.397 2.76zm-1.764-5.712c0-.35-.122-.612-.35-.786-.226-.192-.576-.28-1.03-.28h-.698l-.315 2.358h.681c.367 0 .682-.052.944-.157.262-.105.454-.262.594-.454.104-.192.174-.42.174-.681zM109.869 33.59l-1.118 7.895h-1.345l.472-3.372h-4.158l-.471 3.372h-1.345l1.1-7.896h1.345l-.454 3.284h4.157l.472-3.284h1.345z"/>
</svg>
