<svg xmlns="http://www.w3.org/2000/svg" width="203" height="76" fill="none" viewBox="0 0 203 76">
    <path fill="#fff" d="M22.541 30.14l-2.944 20.958h-4.464l1.235-8.548H5.667l-1.203 8.548H0L2.944 30.14h4.464l-1.171 8.295h10.67l1.17-8.295h4.464zm9.562 6.775c2.026 0 3.704.602 5.002 1.805 1.298 1.234 1.931 2.817 1.931 4.748 0 2.217-.76 4.085-2.28 5.604-1.52 1.52-3.387 2.28-5.635 2.28-1.994 0-3.64-.665-5.002-1.963-1.361-1.267-2.058-2.85-2.058-4.75 0-2.12.792-3.925 2.375-5.445 1.583-1.52 3.482-2.279 5.667-2.279zm-.95 11.08c1.045 0 1.9-.474 2.596-1.456.665-.981 1.013-2.026 1.013-3.197 0-.918-.253-1.646-.76-2.216-.506-.57-1.203-.855-2.026-.855-1.108 0-1.995.506-2.628 1.488-.633 1.013-.95 2.026-.95 3.102 0 .95.285 1.71.855 2.248.507.602 1.172.887 1.9.887zm17.666-13.803l-.57 2.945h3.07l-.569 3.07h-3.071l-.823 4.528c-.063.38-.095.76-.095 1.076 0 1.235.411 1.837 1.235 1.837.506 0 1.298-.285 2.406-.855v3.672c-1.235.602-2.406.887-3.578.887-1.361 0-2.406-.444-3.197-1.298-.792-.855-1.172-1.963-1.172-3.325 0-.411.032-.823.127-1.234l.981-5.32h-2.817l.506-3.07h2.818l.506-2.944h4.243v.031zm17.096 10.511h-9.118c-.095 1.108.158 1.963.76 2.628.601.665 1.424.981 2.438.981 1.14 0 2.849-.474 5.16-1.424l-.728 3.482c-1.805.665-3.42 1.013-4.844 1.013-2.121 0-3.8-.601-5.066-1.836s-1.9-2.88-1.9-4.939c0-2.12.73-3.957 2.217-5.445 1.456-1.488 3.261-2.248 5.35-2.248 1.805 0 3.261.538 4.338 1.615 1.076 1.076 1.646 2.5 1.646 4.242-.032.633-.127 1.266-.253 1.931zm-8.738-2.406h4.875c.032-.158.032-.348.032-.506 0-.602-.19-1.108-.57-1.488-.38-.38-.855-.57-1.488-.57-1.298.031-2.248.886-2.85 2.564zM75.286 30.14l-2.944 20.958h-4.148L71.14 30.14h4.147zm15.893 7.218l-1.931 13.74H85.1l.19-1.298c-1.298 1.045-2.659 1.552-4.02 1.552-1.425 0-2.565-.57-3.514-1.678-.919-1.108-1.394-2.565-1.394-4.306 0-2.501.887-4.527 2.628-6.11 1.741-1.583 4.243-2.375 7.504-2.375 1.614.032 3.197.19 4.685.475zm-5.477 9.688l.918-6.648c-.317-.032-.601-.032-.886-.032-1.678 0-2.913.506-3.768 1.52-.855 1.013-1.266 2.247-1.266 3.735 0 .855.19 1.488.538 1.963.348.475.855.697 1.488.697.981 0 1.963-.412 2.976-1.235zm13.265-9.91l-.316 1.995.063.063c1.235-1.52 2.374-2.279 3.388-2.279.791 0 1.614.507 2.469 1.52l-1.931 3.83c-.665-1.013-1.33-1.488-1.963-1.488-.538 0-1.108.285-1.646.855-.57.57-.855.95-.855 1.172l-1.172 8.294h-4.147l1.963-13.961h4.147zm7.662-3.862c0-.601.221-1.108.633-1.52.412-.411.918-.633 1.52-.633.601 0 1.108.222 1.519.634.412.411.633.918.633 1.52 0 .6-.221 1.107-.633 1.519-.411.411-.918.633-1.519.633-.602 0-1.108-.222-1.52-.633-.443-.412-.633-.918-.633-1.52zm3.736 3.863l-1.963 13.961h-4.148l1.963-13.961h4.148zm17.001.221l-1.931 13.74h-4.148l.19-1.298c-1.298 1.045-2.659 1.552-4.021 1.552-1.393 0-2.564-.57-3.514-1.678-.918-1.108-1.393-2.565-1.393-4.306 0-2.501.887-4.527 2.628-6.11 1.741-1.583 4.242-2.375 7.503-2.375 1.615.032 3.166.19 4.686.475zm-5.509 9.688l.918-6.648c-.316-.032-.601-.032-.886-.032-1.678 0-2.913.506-3.768 1.52-.855 1.013-1.266 2.247-1.266 3.735 0 .855.19 1.488.538 1.963.348.475.855.697 1.488.697 1.013 0 1.995-.412 2.976-1.235zm10.764-16.906h6.649c2.279 0 4.02.475 5.192 1.361 1.171.918 1.773 2.153 1.773 3.704 0 2.09-1.013 3.641-3.04 4.686 1.235.38 2.185 1.013 2.881 1.963.697.95 1.045 1.994 1.045 3.166 0 1.614-.633 3.007-1.931 4.242-1.298 1.235-3.039 1.836-5.256 1.836h-10.257l2.944-20.958zm3.989 3.514l-.696 4.59h3.007c.95 0 1.678-.22 2.217-.664.506-.443.759-1.045.759-1.805 0-1.424-.981-2.12-2.944-2.12h-2.343zm-1.171 8.105l-.887 5.857h4.243c1.203 0 2.121-.285 2.754-.823s.95-1.298.95-2.248c0-.887-.348-1.551-1.045-2.058-.696-.475-1.646-.728-2.849-.728h-3.166zm19.217-4.622l-.316 1.994.063.063c1.235-1.52 2.374-2.279 3.387-2.279.792 0 1.615.507 2.47 1.52l-1.931 3.83c-.665-1.013-1.33-1.488-1.963-1.488-.538 0-1.108.285-1.647.855-.538.57-.854.95-.854 1.172l-1.172 8.294h-4.147l1.963-13.961h4.147zm19.787.221l-1.931 13.74h-4.147l.19-1.298c-1.298 1.045-2.66 1.552-4.021 1.552-1.393 0-2.565-.57-3.514-1.678-.918-1.108-1.393-2.565-1.393-4.306 0-2.501.886-4.527 2.627-6.11 1.742-1.583 4.243-2.375 7.504-2.375 1.614.032 3.197.19 4.685.475zm-5.509 9.688l.919-6.648c-.317-.032-.602-.032-.887-.032-1.678 0-2.913.506-3.767 1.52-.855 1.013-1.267 2.247-1.267 3.735 0 .855.19 1.488.539 1.963.348.475.854.697 1.488.697 1.013 0 1.994-.412 2.975-1.235zm17.508-8.865l-.316 3.293c-.729-.348-1.457-.633-2.248-.855-.792-.221-1.362-.316-1.773-.316-.602 0-.918.19-.918.601 0 .412.57 1.013 1.646 1.836 1.266.95 2.089 1.742 2.438 2.343.38.633.538 1.267.538 1.9 0 1.266-.475 2.31-1.456 3.134-.982.823-2.217 1.235-3.768 1.235-1.583 0-3.197-.412-4.812-1.267l.57-3.102c1.709.633 2.976.981 3.799.981.918 0 1.361-.253 1.361-.76 0-.443-.601-1.108-1.804-2.026-1.203-.918-1.995-1.646-2.343-2.184-.348-.539-.538-1.077-.538-1.552 0-1.33.506-2.406 1.456-3.26.981-.855 2.216-1.267 3.767-1.267 1.425 0 2.913.412 4.401 1.266zm3.736-4.907c0-.601.222-1.108.633-1.52.412-.411.918-.633 1.52-.633.601 0 1.108.222 1.519.634.412.411.634.918.634 1.52 0 .6-.222 1.107-.634 1.519-.443.411-.918.633-1.519.633-.602 0-1.108-.222-1.52-.633-.411-.412-.633-.918-.633-1.52zm3.767 3.863l-1.962 13.961h-4.148l1.963-13.961h4.147zM203 30.14l-2.944 20.958h-4.148l2.945-20.958H203zM89.184 25.328c1.647-1.457 3.388-2.976 5.54-4.306 29.729-18.267 58.571 8.77 89.027 2.66 7.282-1.457 15.038-6.807 17.824-13.93.38-.982.728-1.995 1.045-3.008-.317 1.994-.538 3.577-1.425 5.73-2.817 6.838-8.643 11.587-15.291 14.468-3.419 1.488-7.155 2.216-10.859 2.565-13.487 1.266-26.658-4.433-39.131-8.707-13.962-4.78-28.842-6.046-42.012 1.615-2.787 1.678-1.9 1.14-4.718 2.913z"/>
    <path fill="#fff" d="M160.83 21.623c5.223-.538 10.542-.57 15.703-1.583 8.104-1.108 20.198-6.331 24.124-14.531.823-1.742 1.108-3.61.982-5.509.569 1.52.601 2.85.411 4.432-.443 3.768-3.356 8.137-6.268 10.48-5.889 4.717-12.664 7.344-20.167 7.725-5.098.253-9.752-.349-14.785-1.014zM94.978 22.953c1.456-.697 2.85-1.551 4.337-2.121 1.995-.728 4.021-1.393 6.111-1.773 2.659-.475 5.35-.823 8.041-.855 3.451 0 6.902.253 10.289.792 5.003.823 9.118 2.374 13.677 4.4-2.058-.601-4.084-1.266-6.173-1.773-1.9-.475-3.799-.886-5.731-1.234-3.989-.697-8.073-1.108-12.157-1.045-3.641.063-7.598.411-11.112 1.393-1.583.348-3.135.76-4.654 1.266l-2.628.95zM100.772 64.935c0 .854-.19 1.582-.602 2.279-.411.665-.981 1.203-1.71 1.583-.728.38-1.582.57-2.532.57h-2.026l-.792 5.762h-2.438l1.995-14.31h3.45c.602 0 1.172.063 1.742.221.57.159 1.077.38 1.488.729.412.348.792.76 1.045 1.298.221.475.38 1.108.38 1.868zm-2.501.031c0-.443-.095-.823-.317-1.171-.222-.348-.506-.602-.918-.792-.412-.19-.887-.253-1.456-.253h-.792l-.633 4.654h1.33c.57 0 1.076-.095 1.488-.317.411-.221.728-.506.95-.854.253-.349.348-.792.348-1.267zM109.826 69.682c0 1.045-.221 1.995-.633 2.881-.411.887-1.013 1.552-1.773 2.058-.76.507-1.583.728-2.469.728-.792 0-1.52-.19-2.153-.538-.633-.38-1.108-.886-1.456-1.551-.349-.665-.507-1.425-.507-2.28 0-1.013.222-1.963.665-2.817.443-.855 1.045-1.552 1.805-2.027.759-.474 1.582-.728 2.469-.728.791 0 1.488.19 2.089.538.602.349 1.109.855 1.425 1.52.38.633.538 1.393.538 2.216zm-2.311-.095c0-.696-.158-1.266-.475-1.71-.316-.443-.76-.664-1.298-.664-.506 0-.918.19-1.329.538-.38.348-.697.855-.919 1.488-.221.633-.348 1.266-.348 1.9 0 .443.064.854.222 1.203.158.348.38.633.633.823.285.19.57.285.886.285.475 0 .919-.159 1.33-.507.412-.348.697-.823.95-1.424.222-.57.348-1.235.348-1.932zM117.33 68.162c-.159-.158-.285-.285-.443-.38-.159-.094-.317-.126-.539-.126-.696 0-1.361.665-2.026 1.963l-.791 5.477h-2.248l1.33-9.466h2.279l-.285 1.71c.475-.634.918-1.109 1.298-1.425.38-.285.792-.444 1.203-.444.222 0 .475.032.697.127.221.095.411.222.601.412l-1.076 2.152zM125.719 65.63l-.253 1.71h-1.994l-.697 4.084c-.095.474-.127.823-.127 1.108 0 .221.095.411.254.57.158.158.38.221.665.221.316 0 .569-.032.854-.158.285-.095.57-.222.887-.412l-.063 2.09c-.285.158-.634.285-1.045.38-.412.095-.823.126-1.267.126-.506 0-.949-.095-1.361-.285-.38-.19-.696-.443-.918-.791-.222-.348-.317-.697-.317-1.108 0-.412.095-1.108.285-2.09l.665-3.736h-1.773l.285-1.71h1.836l.349-1.962h2.279l-.348 1.963h1.804zM134.869 75.096h-2.279l.158-.981h-.032c-.855.791-1.709 1.203-2.596 1.203-.601 0-1.14-.159-1.615-.507-.506-.348-.886-.823-1.171-1.425-.285-.601-.412-1.266-.412-1.962 0-1.204.285-2.28.824-3.198.538-.918 1.329-1.615 2.311-2.09.981-.474 2.153-.696 3.482-.696.887 0 1.773.095 2.66.317l-1.33 9.34zm-1.14-7.788c-.19-.032-.411-.032-.601-.032-.57 0-1.077.095-1.552.254-.474.158-.854.443-1.203.76-.348.347-.601.79-.823 1.329-.221.538-.316 1.076-.316 1.646 0 .665.158 1.235.443 1.615.285.412.696.601 1.203.601.317 0 .665-.094 1.045-.316.38-.222.759-.507 1.076-.855l.728-5.002zM141.866 60.786l-1.995 14.31h-2.279l2.026-14.31h2.248zM156.239 60.786l-2.026 14.247c-.918.221-1.963.316-3.071.316-.981 0-1.868-.19-2.628-.538-.76-.348-1.329-.855-1.741-1.488-.412-.665-.601-1.393-.601-2.248 0-1.14.253-2.153.791-3.008.538-.854 1.298-1.52 2.248-1.962.981-.444 2.089-.665 3.356-.665h.728l.633-4.654h2.311zm-3.197 6.522h-.412c-.855 0-1.583.158-2.184.443-.602.285-1.077.728-1.393 1.266-.317.538-.507 1.203-.507 1.932 0 .76.253 1.393.728 1.836.475.443 1.14.696 1.963.696.412 0 .76-.031.981-.095l.824-6.078zM165.958 69.682c0 1.045-.221 1.995-.633 2.881-.411.887-1.013 1.552-1.773 2.058-.759.507-1.583.728-2.501.728-.791 0-1.519-.19-2.153-.538-.633-.38-1.108-.886-1.456-1.551-.348-.665-.506-1.425-.506-2.28 0-1.013.221-1.963.664-2.817.444-.855 1.045-1.552 1.805-2.027.76-.474 1.583-.728 2.469-.728.792 0 1.488.19 2.09.538.601.349 1.108.855 1.425 1.52.411.633.569 1.393.569 2.216zm-2.311-.095c0-.696-.158-1.266-.475-1.71-.316-.443-.759-.664-1.298-.664-.506 0-.918.19-1.329.538-.38.348-.697.855-.918 1.488-.222.633-.349 1.266-.349 1.9 0 .443.064.854.222 1.203.158.348.38.633.633.823.285.19.57.285.887.285.474 0 .918-.159 1.329-.507.412-.348.728-.823.95-1.424.222-.57.348-1.235.348-1.932zM182.706 75.096h-2.627l-1.52-3.166c-.443-.887-.76-1.488-.95-1.773-.19-.316-.38-.538-.57-.696-.19-.159-.38-.285-.601-.349-.222-.063-.507-.095-.887-.095h-.728l-.855 6.079h-2.437l1.994-14.31h3.641c.886 0 1.646.095 2.279.316.634.222 1.108.507 1.488.887.38.38.665.791.823 1.266.159.475.254.982.254 1.488 0 .887-.285 1.647-.855 2.311-.57.665-1.33 1.108-2.311 1.33v.095c.285.158.57.38.76.665.221.285.38.602.57.95l2.532 5.002zm-3.197-10.353c0-.633-.222-1.108-.634-1.424-.411-.349-1.044-.507-1.867-.507h-1.267l-.57 4.274h1.235c.665 0 1.235-.095 1.71-.285.475-.19.823-.475 1.076-.823.19-.348.317-.76.317-1.235zM199.137 60.786l-2.026 14.31h-2.438l.855-6.11h-7.535l-.855 6.11h-2.437l1.994-14.31h2.438l-.823 5.952h7.535l.855-5.952h2.437z"/>
</svg>
